<svg width="360" height="360" viewBox="0 0 360 360" fill="none" xmlns="http://www.w3.org/2000/svg">
<circle cx="180" cy="180" r="180" fill="#7AB040"/>
<path d="M180 51C138.6 51 105 84.6 105 126C105 167.4 138.6 201 180 201C221.4 201 255 167.4 255 126C255 84.6 221.4 51 180 51ZM190.575 171.675V186H170.55V171.525C157.725 168.825 146.85 160.575 146.025 146.025H160.725C161.475 153.9 166.875 160.05 180.6 160.05C195.3 160.05 198.6 152.7 198.6 148.125C198.6 141.9 195.3 136.05 178.575 132.075C159.975 127.575 147.225 119.925 147.225 104.55C147.225 91.65 157.65 83.25 170.55 80.475V66H190.575V80.625C204.525 84 211.5 94.575 211.95 106.05H197.25C196.875 97.725 192.45 92.025 180.6 92.025C169.35 92.025 162.6 97.125 162.6 104.325C162.6 110.625 167.475 114.75 182.625 118.65C197.775 122.55 213.975 129.075 213.975 147.975C213.9 161.7 203.625 169.2 190.575 171.675Z" fill="white"/>
<path d="M236.421 321.727L148.694 344.461C135.383 347.91 121.671 339.842 118.222 326.531L106.776 282.365C105.083 275.831 106.085 268.986 109.507 263.257L145.48 203.251C145.48 203.251 154.897 208.946 155.081 209.157C156.575 210.19 157.604 211.667 158.074 213.482C158.419 214.813 158.369 216.117 158.047 217.363C158.049 217.62 149.921 247.296 149.921 247.296L221.978 228.623C227 227.321 232.104 230.324 233.405 235.346C234.706 240.368 231.703 245.472 226.682 246.773L184.331 257.748L185.898 263.798L243.375 248.903C248.396 247.602 253.501 250.605 254.802 255.627C256.103 260.648 253.1 265.753 248.078 267.054L190.602 281.949L192.17 287.999L243.596 274.672C248.618 273.371 253.722 276.374 255.023 281.395C256.324 286.417 253.321 291.521 248.3 292.822L196.873 306.149L198.441 312.199L231.717 303.576C236.739 302.275 241.843 305.278 243.144 310.3C244.446 315.321 241.442 320.425 236.421 321.727Z" fill="white"/>
<path d="M180.435 225.767L205.186 201.071L212.729 208.614L180.4 240.943L148.071 208.614L155.614 201.071L180.365 225.767L180.4 225.803L180.435 225.767Z" fill="white" stroke="#B9B9B9" stroke-width="0.1"/>
</svg>
