<svg width="32" height="32" viewBox="0 0 32 32" fill="none" xmlns="http://www.w3.org/2000/svg">
<path d="M16 2.66667C8.64 2.66667 2.66667 8.64 2.66667 16C2.66667 23.36 8.64 29.3333 16 29.3333C23.36 29.3333 29.3333 23.36 29.3333 16C29.3333 8.64 23.36 2.66667 16 2.66667ZM16 6.66667C18.2133 6.66667 20 8.45333 20 10.6667C20 12.88 18.2133 14.6667 16 14.6667C13.7867 14.6667 12 12.88 12 10.6667C12 8.45333 13.7867 6.66667 16 6.66667ZM16 25.6C12.6667 25.6 9.72 23.8933 8 21.3067C8.04 18.6533 13.3333 17.2 16 17.2C18.6533 17.2 23.96 18.6533 24 21.3067C22.28 23.8933 19.3333 25.6 16 25.6Z" fill="#26953F"/>
</svg>
