<svg width="27" height="28" viewBox="0 0 27 28" fill="none" xmlns="http://www.w3.org/2000/svg">
<circle cx="13.335" cy="13.335" r="13.335" fill="#7AB040"/>
<path d="M21.4842 13.335L19.6765 11.2755L19.9284 8.54922L17.254 7.94173L15.8538 5.58588L13.335 6.6675L10.8162 5.58588L9.416 7.94173L6.74159 8.54181L6.99347 11.2681L5.18584 13.335L6.99347 15.3945L6.74159 18.1282L9.416 18.7357L10.8162 21.0915L13.335 20.0025L15.8538 21.0841L17.254 18.7283L19.9284 18.1208L19.6765 15.3945L21.4842 13.335ZM14.0758 17.0392H12.5942V15.5575H14.0758V17.0392ZM14.0758 14.0758H12.5942V9.63083H14.0758V14.0758Z" fill="white"/>
<path d="M9.15426 22.5H9.96426V26H9.15426V22.5ZM12.3099 22.5C12.6199 22.5 12.8882 22.5517 13.1149 22.655C13.3449 22.7583 13.5215 22.905 13.6449 23.095C13.7682 23.285 13.8299 23.51 13.8299 23.77C13.8299 24.0267 13.7682 24.2517 13.6449 24.445C13.5215 24.635 13.3449 24.7817 13.1149 24.885C12.8882 24.985 12.6199 25.035 12.3099 25.035H11.6049V26H10.7949V22.5H12.3099ZM12.2649 24.375C12.5082 24.375 12.6932 24.3233 12.8199 24.22C12.9465 24.1133 13.0099 23.9633 13.0099 23.77C13.0099 23.5733 12.9465 23.4233 12.8199 23.32C12.6932 23.2133 12.5082 23.16 12.2649 23.16H11.6049V24.375H12.2649ZM16.152 26.06C15.7887 26.06 15.4603 25.9817 15.167 25.825C14.877 25.6683 14.6487 25.4533 14.482 25.18C14.3187 24.9033 14.237 24.5933 14.237 24.25C14.237 23.9067 14.3187 23.5983 14.482 23.325C14.6487 23.0483 14.877 22.8317 15.167 22.675C15.4603 22.5183 15.7887 22.44 16.152 22.44C16.5153 22.44 16.842 22.5183 17.132 22.675C17.422 22.8317 17.6503 23.0483 17.817 23.325C17.9837 23.5983 18.067 23.9067 18.067 24.25C18.067 24.5933 17.9837 24.9033 17.817 25.18C17.6503 25.4533 17.422 25.6683 17.132 25.825C16.842 25.9817 16.5153 26.06 16.152 26.06ZM16.152 25.37C16.3587 25.37 16.5453 25.3233 16.712 25.23C16.8787 25.1333 17.0087 25 17.102 24.83C17.1987 24.66 17.247 24.4667 17.247 24.25C17.247 24.0333 17.1987 23.84 17.102 23.67C17.0087 23.5 16.8787 23.3683 16.712 23.275C16.5453 23.1783 16.3587 23.13 16.152 23.13C15.9453 23.13 15.7587 23.1783 15.592 23.275C15.4253 23.3683 15.2937 23.5 15.197 23.67C15.1037 23.84 15.057 24.0333 15.057 24.25C15.057 24.4667 15.1037 24.66 15.197 24.83C15.2937 25 15.4253 25.1333 15.592 25.23C15.7587 25.3233 15.9453 25.37 16.152 25.37Z" fill="#7AB040"/>
<path d="M9.15426 22.5V21.5H8.15426V22.5H9.15426ZM9.96426 22.5H10.9643V21.5H9.96426V22.5ZM9.96426 26V27H10.9643V26H9.96426ZM9.15426 26H8.15426V27H9.15426V26ZM9.15426 23.5H9.96426V21.5H9.15426V23.5ZM8.96426 22.5V26H10.9643V22.5H8.96426ZM9.96426 25H9.15426V27H9.96426V25ZM10.1543 26V22.5H8.15426V26H10.1543ZM13.1149 22.655L12.7001 23.5649L12.7051 23.5672L13.1149 22.655ZM13.6449 24.445L14.4837 24.9895L14.4879 24.9828L13.6449 24.445ZM13.1149 24.885L13.5185 25.7999L13.5247 25.7972L13.1149 24.885ZM11.6049 25.035V24.035H10.6049V25.035H11.6049ZM11.6049 26V27H12.6049V26H11.6049ZM10.7949 26H9.79488V27H10.7949V26ZM10.7949 22.5V21.5H9.79488V22.5H10.7949ZM12.8199 24.22L13.452 24.9949L13.4581 24.9899L13.464 24.9849L12.8199 24.22ZM12.8199 23.32L12.1757 24.0849L12.1817 24.0899L12.1878 24.0949L12.8199 23.32ZM11.6049 23.16V22.16H10.6049V23.16H11.6049ZM11.6049 24.375H10.6049V25.375H11.6049V24.375ZM12.3099 23.5C12.5108 23.5 12.6314 23.5336 12.7001 23.5649L13.5297 21.7451C13.145 21.5697 12.729 21.5 12.3099 21.5V23.5ZM12.7051 23.5672C12.7802 23.6009 12.7991 23.6286 12.8061 23.6395L14.4837 22.5505C14.244 22.1814 13.9095 21.9157 13.5247 21.7428L12.7051 23.5672ZM12.8061 23.6395C12.8093 23.6444 12.8299 23.674 12.8299 23.77H14.8299C14.8299 23.346 14.7271 22.9256 14.4837 22.5505L12.8061 23.6395ZM12.8299 23.77C12.8299 23.8595 12.8107 23.8932 12.8018 23.9072L14.4879 24.9828C14.7257 24.6101 14.8299 24.1938 14.8299 23.77H12.8299ZM12.8061 23.9005C12.7991 23.9114 12.7802 23.9391 12.7051 23.9728L13.5247 25.7972C13.9095 25.6243 14.244 25.3586 14.4837 24.9895L12.8061 23.9005ZM12.7112 23.9701C12.6394 24.0018 12.5147 24.035 12.3099 24.035V26.035C12.725 26.035 13.137 25.9682 13.5185 25.7999L12.7112 23.9701ZM12.3099 24.035H11.6049V26.035H12.3099V24.035ZM10.6049 25.035V26H12.6049V25.035H10.6049ZM11.6049 25H10.7949V27H11.6049V25ZM11.7949 26V22.5H9.79488V26H11.7949ZM10.7949 23.5H12.3099V21.5H10.7949V23.5ZM12.2649 25.375C12.6302 25.375 13.0779 25.3001 13.452 24.9949L12.1878 23.4451C12.2482 23.3958 12.2999 23.3779 12.3171 23.3731C12.3319 23.369 12.3186 23.375 12.2649 23.375V25.375ZM13.464 24.9849C13.8552 24.6555 14.0099 24.2034 14.0099 23.77H12.0099C12.0099 23.7577 12.012 23.7074 12.0411 23.6385C12.0719 23.5655 12.1205 23.5016 12.1757 23.4551L13.464 24.9849ZM14.0099 23.77C14.0099 23.3404 13.8592 22.8773 13.452 22.5451L12.1878 24.0949C12.1252 24.0438 12.0732 23.9749 12.0411 23.899C12.0112 23.8281 12.0099 23.7781 12.0099 23.77H14.0099ZM13.464 22.5551C13.089 22.2393 12.6364 22.16 12.2649 22.16V24.16C12.3163 24.16 12.3267 24.1659 12.3091 24.1609C12.2886 24.155 12.2357 24.1354 12.1757 24.0849L13.464 22.5551ZM12.2649 22.16H11.6049V24.16H12.2649V22.16ZM10.6049 23.16V24.375H12.6049V23.16H10.6049ZM11.6049 25.375H12.2649V23.375H11.6049V25.375ZM15.167 25.825L14.6917 26.7048L14.6959 26.7071L15.167 25.825ZM14.482 25.18L13.6209 25.6884L13.6245 25.6945L13.6282 25.7006L14.482 25.18ZM14.482 23.325L13.6254 22.809L13.6236 22.812L14.482 23.325ZM15.167 22.675L14.6959 21.7929L14.6917 21.7952L15.167 22.675ZM17.817 23.325L16.9604 23.841L16.9632 23.8456L17.817 23.325ZM17.817 25.18L18.6708 25.7006L18.6736 25.696L17.817 25.18ZM17.132 25.825L17.6073 26.7048L17.6073 26.7048L17.132 25.825ZM16.712 25.23L17.2006 26.1025L17.2072 26.0988L17.2137 26.095L16.712 25.23ZM17.102 24.83L16.2327 24.3357L16.229 24.3422L16.2254 24.3487L17.102 24.83ZM17.102 23.67L16.2254 24.1513L16.229 24.1578L16.2327 24.1643L17.102 23.67ZM16.712 23.275L16.2103 24.14L16.2168 24.1438L16.2234 24.1475L16.712 23.275ZM15.592 23.275L16.0806 24.1475L16.0872 24.1438L16.0937 24.14L15.592 23.275ZM15.197 23.67L14.3277 23.1757L14.324 23.1822L14.3204 23.1887L15.197 23.67ZM15.197 24.83L14.3204 25.3113L14.324 25.3178L14.3277 25.3243L15.197 24.83ZM15.592 25.23L15.0903 26.095L15.0968 26.0988L15.1034 26.1025L15.592 25.23ZM16.152 25.06C15.9374 25.06 15.7733 25.0152 15.6381 24.9429L14.6959 26.7071C15.1473 26.9482 15.6399 27.06 16.152 27.06V25.06ZM15.6423 24.9452C15.5032 24.87 15.4075 24.777 15.3358 24.6594L13.6282 25.7006C13.8898 26.1297 14.2508 26.4666 14.6917 26.7048L15.6423 24.9452ZM15.3431 24.6716C15.277 24.5596 15.237 24.4272 15.237 24.25H13.237C13.237 24.7594 13.3604 25.2471 13.6209 25.6884L15.3431 24.6716ZM15.237 24.25C15.237 24.0727 15.277 23.9441 15.3404 23.838L13.6236 22.812C13.3604 23.2525 13.237 23.7407 13.237 24.25H15.237ZM15.3386 23.841C15.411 23.7208 15.5062 23.6283 15.6423 23.5548L14.6917 21.7952C14.2477 22.035 13.8863 22.3759 13.6254 22.809L15.3386 23.841ZM15.6381 23.5571C15.7733 23.4848 15.9374 23.44 16.152 23.44V21.44C15.6399 21.44 15.1473 21.5518 14.6959 21.7929L15.6381 23.5571ZM16.152 23.44C16.3667 23.44 16.5272 23.4849 16.6567 23.5548L17.6073 21.7952C17.1568 21.5518 16.6639 21.44 16.152 21.44V23.44ZM16.6567 23.5548C16.7927 23.6283 16.888 23.7208 16.9604 23.841L18.6736 22.809C18.4127 22.3759 18.0512 22.035 17.6073 21.7952L16.6567 23.5548ZM16.9632 23.8456C17.0273 23.9507 17.067 24.0765 17.067 24.25H19.067C19.067 23.7368 18.94 23.2459 18.6708 22.8044L16.9632 23.8456ZM17.067 24.25C17.067 24.4234 17.0273 24.553 16.9604 24.664L18.6736 25.696C18.94 25.2537 19.067 24.7633 19.067 24.25H17.067ZM16.9632 24.6594C16.8915 24.777 16.7958 24.87 16.6567 24.9452L17.6073 26.7048C18.0482 26.4666 18.4092 26.1297 18.6708 25.7006L16.9632 24.6594ZM16.6567 24.9452C16.5272 25.0151 16.3667 25.06 16.152 25.06V27.06C16.6639 27.06 17.1568 26.9482 17.6073 26.7048L16.6567 24.9452ZM16.152 26.37C16.5153 26.37 16.8726 26.2862 17.2006 26.1025L16.2234 24.3575C16.2181 24.3605 16.202 24.37 16.152 24.37V26.37ZM17.2137 26.095C17.539 25.9063 17.7982 25.6398 17.9786 25.3113L16.2254 24.3487C16.2227 24.3536 16.2208 24.3564 16.2198 24.3577C16.2193 24.3584 16.219 24.3588 16.2188 24.359C16.2186 24.3593 16.2185 24.3594 16.2185 24.3594C16.2185 24.3594 16.2184 24.3595 16.2183 24.3596C16.2182 24.3597 16.2179 24.3599 16.2174 24.3603C16.2165 24.361 16.2143 24.3626 16.2103 24.365L17.2137 26.095ZM17.9713 25.3243C18.1626 24.9878 18.247 24.6208 18.247 24.25H16.247C16.247 24.3125 16.2347 24.3322 16.2327 24.3357L17.9713 25.3243ZM18.247 24.25C18.247 23.8792 18.1626 23.5122 17.9713 23.1757L16.2327 24.1643C16.2347 24.1678 16.247 24.1875 16.247 24.25H18.247ZM17.9786 23.1887C17.7966 22.8572 17.5333 22.5888 17.2006 22.4025L16.2234 24.1475C16.2258 24.1489 16.2265 24.1494 16.2258 24.149C16.2252 24.1485 16.2241 24.1475 16.2229 24.1463C16.2217 24.1451 16.2212 24.1444 16.2214 24.1447C16.2216 24.145 16.2231 24.147 16.2254 24.1513L17.9786 23.1887ZM17.2137 22.41C16.8836 22.2185 16.5216 22.13 16.152 22.13V24.13C16.1957 24.13 16.2071 24.1382 16.2103 24.14L17.2137 22.41ZM16.152 22.13C15.7824 22.13 15.4204 22.2185 15.0903 22.41L16.0937 24.14C16.0969 24.1382 16.1083 24.13 16.152 24.13V22.13ZM15.1034 22.4025C14.7738 22.5871 14.5122 22.8513 14.3277 23.1757L16.0663 24.1643C16.0696 24.1585 16.0721 24.155 16.0734 24.1532C16.0741 24.1523 16.0746 24.1517 16.0749 24.1514C16.0752 24.151 16.0753 24.1509 16.0753 24.1509C16.0754 24.1508 16.0754 24.1508 16.0754 24.1508C16.0754 24.1508 16.0754 24.1508 16.0754 24.1508C16.0754 24.1508 16.0754 24.1508 16.0754 24.1508C16.0754 24.1508 16.0754 24.1508 16.0754 24.1508C16.0754 24.1508 16.0754 24.1508 16.0754 24.1508C16.0754 24.1508 16.0754 24.1508 16.0754 24.1508C16.0754 24.1508 16.0754 24.1508 16.0755 24.1508C16.0755 24.1507 16.0756 24.1507 16.0757 24.1506C16.0761 24.1503 16.0775 24.1492 16.0806 24.1475L15.1034 22.4025ZM14.3204 23.1887C14.137 23.5229 14.057 23.8852 14.057 24.25H16.057C16.057 24.1815 16.0704 24.1571 16.0736 24.1513L14.3204 23.1887ZM14.057 24.25C14.057 24.6148 14.137 24.9771 14.3204 25.3113L16.0736 24.3487C16.0704 24.3429 16.057 24.3185 16.057 24.25H14.057ZM14.3277 25.3243C14.5105 25.6458 14.768 25.9081 15.0903 26.095L16.0937 24.365C16.0826 24.3585 16.0768 24.3542 16.0663 24.3357L14.3277 25.3243ZM15.1034 26.1025C15.4314 26.2862 15.7887 26.37 16.152 26.37V24.37C16.102 24.37 16.0859 24.3605 16.0806 24.3575L15.1034 26.1025Z" fill="#E5E5E5"/>
</svg>
